<?xml version="1.0" encoding="UTF-8"?>
<svg id="svg24" width="1e3" height="1e3" version="1.1" viewBox="0 0 1e3 1e3" xmlns="http://www.w3.org/2000/svg" xmlns:cc="http://creativecommons.org/ns#" xmlns:dc="http://purl.org/dc/elements/1.1/" xmlns:rdf="http://www.w3.org/1999/02/22-rdf-syntax-ns#">
 <metadata id="metadata30">
  <rdf:RDF>
   <cc:Work rdf:about="">
    <dc:format>image/svg+xml</dc:format>
    <dc:type rdf:resource="http://purl.org/dc/dcmitype/StillImage"/>
   </cc:Work>
  </rdf:RDF>
 </metadata>
 <g id="g22" transform="translate(0,88)" stroke-linecap="round" stroke-linejoin="round">
  <path id="path2" d="m799.1 386.69c-32.724-3.1546-61.667-9.7028-105.7-23.915-32.742-10.567-67.878-19.184-95.915-23.524-24.419-3.7795-79.882-3.8456-99.782-0.11924-19.167 3.5895-38.737 9.3983-58.265 17.295l-16.496 6.6703-0.99094-15.642c-0.54525-8.6031-0.77909-76.47-0.52093-150.82l0.47-135.17 13.15-5.3231c36.671-14.845 78.232-26.362 110.3-30.565 45.491-5.9629 80.249-0.76266 124.44 18.618 52.563 23.053 85.22 30.271 138.09 30.518 32.746 0.15316 51.839-1.9242 77.881-8.4741 10.077-2.5344 18.621-4.3086 18.986-3.9427 0.36581 0.36593 0.12734 14.164-0.5302 30.661l-1.1958 29.996-16.74 5.0249c-59.728 17.929-106.12 16.889-170.44-3.8211-11.91-3.8347-32.099-11.694-44.863-17.466-40.784-18.44-71.672-26.278-103.47-26.256-28.899 0.01852-46.545 4.2772-81.789 19.734l-19.724 8.6504v88.807c0 48.844 0.5221 88.539 1.1602 88.211 39.286-20.197 80.648-23.122 135.26-9.5663 20.35 5.0515 36.308 11.112 64.801 24.61 41.107 19.474 88.777 33.924 125.31 37.985 19.139 2.1274 39.223 0.15859 51.275-5.0258l7.3964-3.1819v-41.744c0-39.133-0.16901-41.677-2.7072-40.675-9.0518 3.5757-28.616 5.7627-44.477 4.972-25.063-1.2497-37.475-4.9824-88.18-26.518-52.27-22.2-112.19-29.535-127.55-15.614-2.1572 1.9543-2.3483-0.18176-1.907-21.312 0.55335-26.513-0.0926-25.09 14.114-30.813 7.329-2.9508 11.461-3.4586 27.939-3.4323 23.193 0.0347 29.956 1.7068 79.671 19.675 18.719 6.7655 40.562 13.623 48.541 15.239 55.412 11.223 88.295 9.8608 133.12-5.5162 6.3177-2.1673 12.146-3.9406 12.951-3.9406 1.5135 0 0.29636 155.65-1.4171 181.26l-0.89716 13.408-12.609 3.4087c-27.635 7.4707-60.775 10.324-88.677 7.6343z" fill="#ff6b2a" stroke="#ff6b2a" stroke-width="11.576"/>
  <path id="ellipse4" d="m193.16 301.04a61.107 61.881 0 0 1-61.107 61.88 61.107 61.881 0 0 1-61.107-61.88 61.107 61.881 0 0 1 61.107-61.88 61.107 61.881 0 0 1 61.107 61.88z"/>
  <path id="rect6" d="m100.05 376.22h63.202v396.12h-63.202z" stroke="#000" stroke-width="10.97"/>
  <path id="rect8" d="m180.27 448.43h169.68v45.623h-169.68z" stroke="#000" stroke-width="10.384"/>
  <path id="ellipse10" d="m418.02 471.21a42.543 43.316 0 0 1-42.543 43.316 42.543 43.316 0 0 1-42.543-43.316 42.543 43.316 0 0 1 42.543-43.316 42.543 43.316 0 0 1 42.543 43.316z"/>
  <path id="path12" d="m349.56 49.632v376.37c12.496-10.378 38.709-10.281 50.439 1.1e-4l1.2302-376.37z" stroke="#000" stroke-width="5.7882"/>
  <path id="path14" d="m349.36 636.11v-119.57c16.384 10.583 36.447 10.052 50.439-1.2e-4l1.2302 119.57z" stroke="#000" stroke-width="5.7882"/>
  <g id="text16" stroke="#000" stroke-width="3.4729" aria-label="acker">
   <path id="path21" d="m227.87 733.35v29.325q-3.4857 0.60621-6.3651 0.60621-17.049 0-28.416-11.215t-11.366-28.113q0-16.443 11.442-27.885 11.518-11.442 27.961-11.442 18.338 0 28.87 10.76 10.609 10.684 10.609 29.249v37.054h-28.34v-35.008q0-5.9862-2.9552-9.5477-2.8795-3.5614-7.8049-3.5614-4.4708 0-7.7291 3.2583t-3.2583 7.7291q0 4.6981 2.9552 7.7291t7.5018 3.031q3.713 0 6.8956-1.9702z"/>
   <path id="path23" d="m323.5 726.91 28.113-1.0609q-1.2124 16.367-12.2 26.9t-26.749 10.533q-16.671 0-28.188-11.594-11.442-11.594-11.442-28.416 0-15.989 11.594-27.355 11.594-11.366 27.81-11.366 14.17 0 25.006 8.9415t13.488 22.808l-28.719 1.0609q-3.713-4.8496-9.3962-4.8496-4.8496 0-7.9564 3.1826t-3.1068 8.0322q0 4.9254 3.2583 8.2595 3.3341 3.3341 8.2595 3.3341 7.1987 0 10.23-8.4111z"/>
   <path id="path25" d="m392.3 658.26v103.43h-28.34v-103.43zm43.419 27.885-13.867 27.506 20.611 48.042h-31.371l-17.731-49.33 12.882-26.218z"/>
   <path id="path27" d="m521.88 728.5h-42.965q-0.98508-3.2583-0.98508-5.9863 0-3.7888 1.364-7.426h14.397q-1.5155-8.4111-9.4719-8.4111-5.3043 0-8.6384 4.5465-3.3341 4.4708-3.3341 11.518 0 7.3502 3.1826 11.897 3.2583 4.5465 8.4868 4.5465 4.2434 0 8.1837-4.2434l16.14 19.398q-11.291 8.8657-25.082 8.8657-16.822 0-28.264-11.291-11.442-11.291-11.442-27.961 0-16.595 11.518-28.037 11.594-11.442 28.416-11.442 16.443 0 27.582 11.215 11.215 11.139 11.215 27.506 0 1.6671-0.3031 5.3043z"/>
   <path id="path29" d="m575.07 685.38v30.31q-2.9552-1.6671-5.38-1.6671-7.7291 0-7.7291 11.821v35.842h-28.34v-41.298q0-16.367 8.9415-26.067 8.9415-9.775 23.869-9.775 3.3341 0 8.6384 0.83353z"/>
  </g>
  <g id="text18" fill="#ff6b2a" stroke="#ff6b2a" stroke-width="3.1256" aria-label="ame">
   <path id="path32" d="m658.46 468.39v29.325q-3.4857 0.6062-6.3651 0.6062-17.049 0-28.416-11.215-11.366-11.215-11.366-28.113 0-16.443 11.442-27.885 11.518-11.442 27.961-11.442 18.338 0 28.87 10.76 10.609 10.684 10.609 29.249v37.054h-28.34v-35.008q0-5.9863-2.9552-9.5477-2.8795-3.5614-7.8049-3.5614-4.4708 0-7.7291 3.2583t-3.2583 7.7291q0 4.6981 2.9552 7.7291 2.9552 3.031 7.5018 3.031 3.713 0 6.8956-1.9702z"/>
   <path id="path34" d="m811.37 496.73h-28.34v-40.767q0-4.6981-0.98508-6.5167t-3.5614-1.8186q-4.7738 0-4.7738 8.4111v40.691h-28.34v-40.767q0-4.6981-1.0609-6.5167-0.98508-1.8186-3.5614-1.8186-4.6981 0-4.6981 8.4111v40.691h-28.34v-46.526q0-12.73 8.5626-21.596 8.5626-8.9415 20.762-8.9415 12.579 0 22.581 10.609 11.139-10.609 22.278-10.609 14.17 0 22.733 10.305 6.744 8.0322 6.744 23.415z"/>
   <path id="path36" d="m902.23 463.54h-42.965q-0.98508-3.2583-0.98508-5.9863 0-3.7888 1.364-7.426h14.397q-1.5155-8.4111-9.4719-8.4111-5.3043 0-8.6384 4.5465-3.3341 4.4708-3.3341 11.518 0 7.3502 3.1826 11.897 3.2584 4.5465 8.4868 4.5465 4.2434 0 8.1837-4.2434l16.14 19.398q-11.291 8.8657-25.082 8.8657-16.822 0-28.264-11.291-11.442-11.291-11.442-27.961 0-16.595 11.518-28.037 11.594-11.442 28.416-11.442 16.443 0 27.582 11.215 11.215 11.139 11.215 27.506 0 1.6671-0.3031 5.3043z"/>
  </g>
 </g>
</svg>
